<?xml version="1.0" standalone="no"?>
<!DOCTYPE svg PUBLIC "-//W3C//DTD SVG 1.1//EN" "http://www.w3.org/Graphics/SVG/1.1/DTD/svg11.dtd" >
<svg xmlns="http://www.w3.org/2000/svg">
<metadata>Generated by IcoMoon</metadata>
<defs>
<font id="afzaliwp-icon-1-0" horiz-adv-x="1024">
<font-face units-per-em="1024" ascent="960" descent="-64" />
<missing-glyph horiz-adv-x="1024" />
<glyph unicode="&#x20;" horiz-adv-x="512" d="" />
<glyph unicode="&#xe900;" glyph-name="facebook" d="M938.667 435.038c0 237.082-191.023 429.274-426.667 429.274-235.642 0-426.667-192.192-426.667-429.274 0-214.259 156.025-391.855 360-424.060v299.972h-108.333v124.087h108.333v94.575c0 107.587 63.701 167.014 161.156 167.014 46.686 0 95.509-8.384 95.509-8.384v-105.642h-53.798c-53.001 0-69.534-33.093-69.534-67.043v-80.521h118.332l-18.914-124.087h-99.418v-299.972c203.977 32.205 360 209.792 360 424.060z" />
<glyph unicode="&#xe901;" glyph-name="chevron-down" d="M277.333 597.333c-0.023 0-0.051 0-0.078 0-8.817 0-16.801-3.566-22.589-9.334l0.001 0.001c-5.814-5.795-9.412-13.811-9.412-22.667s3.598-16.872 9.411-22.666l234.668-234.668c5.795-5.814 13.811-9.411 22.667-9.411s16.872 3.597 22.666 9.41l234.668 234.668c5.814 5.795 9.412 13.811 9.412 22.667s-3.598 16.872-9.411 22.666l-0.001 0.001c-5.795 5.814-13.811 9.412-22.667 9.412s-16.872-3.598-22.666-9.411l-212.001-212.001-212 212c-5.787 5.767-13.771 9.333-22.588 9.333-0.028 0-0.055 0-0.083 0h0.004z" />
<glyph unicode="&#xe902;" glyph-name="arrow-down" d="M512 736c-17.673 0-32-14.327-32-32v0-512c0-17.673 14.327-32 32-32v0c17.673 0 32 14.327 32 32v0 512c0 17.673-14.327 32-32 32v0zM358.417 377.583c-0.023 0-0.051 0-0.078 0-8.817 0-16.801-3.566-22.589-9.334l0.001 0.001c-5.789-5.791-9.37-13.79-9.37-22.625s3.581-16.834 9.37-22.625l153.583-153.667c5.791-5.789 13.79-9.369 22.625-9.369s16.834 3.58 22.625 9.369l153.667 153.667c5.789 5.791 9.37 13.79 9.37 22.625s-3.581 16.834-9.37 22.625v0c-5.791 5.789-13.79 9.37-22.625 9.37s-16.834-3.581-22.625-9.37l-131-131-131 131c-5.786 5.766-13.768 9.332-22.583 9.333v0z" />
<glyph unicode="&#xe903;" glyph-name="chevron-left" d="M629.333 714.667c-0.023 0-0.051 0-0.078 0-8.817 0-16.801-3.566-22.589-9.334l-234.666-234.666c-5.814-5.795-9.411-13.811-9.411-22.667s3.597-16.872 9.41-22.666l234.668-234.668c5.795-5.814 13.811-9.412 22.667-9.412s16.872 3.598 22.666 9.411l0.001 0.001c5.814 5.795 9.412 13.811 9.412 22.667s-3.598 16.872-9.411 22.666l-212.001 212.001 212 212c5.814 5.795 9.412 13.811 9.412 22.667s-3.598 16.872-9.411 22.666l-0.001 0.001c-5.787 5.767-13.771 9.333-22.588 9.333-0.028 0-0.055 0-0.083 0h0.004z" />
<glyph unicode="&#xe904;" glyph-name="arrow-left" d="M256 480c-17.673 0-32-14.327-32-32v0c0-17.673 14.327-32 32-32v0h512c17.673 0 32 14.327 32 32v0c0 17.673-14.327 32-32 32v0zM409.583 633.583c-8.815-0.001-16.798-3.567-22.584-9.334l-153.666-153.582c-5.814-5.795-9.411-13.811-9.411-22.667s3.597-16.872 9.41-22.666l153.668-153.584c5.791-5.789 13.79-9.37 22.625-9.37s16.834 3.581 22.625 9.37v0c5.789 5.791 9.37 13.79 9.37 22.625s-3.581 16.834-9.37 22.625l-130.917 131 130.917 131c5.789 5.791 9.37 13.79 9.37 22.625s-3.581 16.834-9.37 22.625v0c-5.787 5.767-13.771 9.333-22.588 9.333-0.028 0-0.055 0-0.083 0h0.004z" />
<glyph unicode="&#xe905;" glyph-name="chevron-right" d="M394.667 714.667c-0.023 0-0.051 0-0.078 0-8.817 0-16.801-3.566-22.589-9.334l0.001 0.001c-5.814-5.795-9.412-13.811-9.412-22.667s3.598-16.872 9.411-22.666l212.001-212.001-212-212c-5.814-5.795-9.412-13.811-9.412-22.667s3.598-16.872 9.411-22.666l0.001-0.001c5.795-5.814 13.811-9.412 22.667-9.412s16.872 3.598 22.666 9.411l234.668 234.668c5.814 5.795 9.411 13.811 9.411 22.667s-3.597 16.872-9.41 22.666l-234.668 234.668c-5.787 5.767-13.771 9.333-22.588 9.333-0.028 0-0.055 0-0.083 0h0.004z" />
<glyph unicode="&#xe906;" glyph-name="arrow-right" d="M256 480c-17.673 0-32-14.327-32-32v0c0-17.673 14.327-32 32-32v0h512c17.673 0 32 14.327 32 32v0c0 17.673-14.327 32-32 32v0zM614.417 633.583c-0.023 0-0.051 0-0.078 0-8.817 0-16.801-3.566-22.589-9.334l0.001 0.001c-5.789-5.791-9.37-13.79-9.37-22.625s3.581-16.834 9.37-22.625l130.917-131-130.917-131c-5.789-5.791-9.37-13.79-9.37-22.625s3.581-16.834 9.37-22.625v0c5.791-5.789 13.79-9.37 22.625-9.37s16.834 3.581 22.625 9.37l153.583 153.583c5.814 5.795 9.411 13.811 9.411 22.667s-3.597 16.872-9.41 22.666l-153.584 153.584c-5.786 5.766-13.768 9.332-22.583 9.333v0z" />
<glyph unicode="&#xe907;" glyph-name="chevron-up" d="M489.333 588l-234.667-234.667c-5.814-5.795-9.412-13.811-9.412-22.667s3.598-16.872 9.411-22.666l0.001-0.001c5.795-5.814 13.811-9.412 22.667-9.412s16.872 3.598 22.666 9.411l212.001 212.001 212-212c5.795-5.814 13.811-9.412 22.667-9.412s16.872 3.598 22.666 9.411l0.001 0.001c5.814 5.795 9.412 13.811 9.412 22.667s-3.598 16.872-9.411 22.666l-234.668 234.668c-5.795 5.814-13.811 9.411-22.667 9.411s-16.872-3.597-22.666-9.41l-0.001-0.001z" />
<glyph unicode="&#xe908;" glyph-name="arrow-up" d="M512 736c-17.673 0-32-14.327-32-32v0-512c0-17.673 14.327-32 32-32v0c17.673 0 32 14.327 32 32v0 512c0 17.673-14.327 32-32 32v0zM489.333 726.667l-153.583-153.667c-5.789-5.791-9.37-13.79-9.37-22.625s3.581-16.834 9.37-22.625v0c5.791-5.789 13.79-9.37 22.625-9.37s16.834 3.581 22.625 9.37l131 131 131-131c5.791-5.789 13.79-9.37 22.625-9.37s16.834 3.581 22.625 9.37v0c5.789 5.791 9.37 13.79 9.37 22.625s-3.581 16.834-9.37 22.625l-153.667 153.667c-5.791 5.789-13.79 9.369-22.625 9.369s-16.834-3.58-22.625-9.369v0z" />
<glyph unicode="&#xe909;" glyph-name="link-alt" d="M180.137 116.139c19.792-19.819 43.305-35.533 69.189-46.238s53.628-16.188 81.638-16.141c28.016-0.047 55.766 5.44 81.657 16.141 25.891 10.705 49.413 26.419 69.214 46.238l120.661 120.704-60.331 60.331-120.663-120.704c-24.044-23.936-56.59-37.372-90.517-37.372s-66.473 13.436-90.517 37.372c-23.957 24.034-37.41 56.585-37.41 90.517 0 33.937 13.453 66.487 37.41 90.517l120.704 120.661-60.331 60.332-120.704-120.663c-39.944-40.038-62.377-94.289-62.377-150.848 0-56.555 22.432-110.805 62.377-150.848zM843.861 478.165c39.923 40.055 62.34 94.298 62.34 150.85s-22.417 110.796-62.34 150.848c-40.043 39.944-94.293 62.377-150.848 62.377-56.559 0-110.81-22.432-150.848-62.377l-120.663-120.704 60.332-60.331 120.661 120.704c24.043 23.936 56.589 37.375 90.517 37.375 33.924 0 66.47-13.438 90.517-37.375 23.957-24.033 37.41-56.583 37.41-90.517s-13.453-66.484-37.41-90.517l-120.704-120.663 60.331-60.331 120.704 120.661zM361.129 236.8l-60.373 60.331 362.114 362.067 60.331-60.373-362.071-362.025z" />
<glyph unicode="&#xe90a;" glyph-name="x" d="M732.847 778.979h117.764l-257.284-289.17 302.673-393.498h-236.988l-185.621 238.652-212.389-238.652h-117.836l275.188 309.299-290.354 373.368h243.006l167.785-218.138 194.057 218.138zM691.511 165.628h65.259l-421.222 547.675h-70.025l425.988-547.675z" />
<glyph unicode="&#xe90b;" glyph-name="cross-circle" d="M405.333 586.667c-0.023 0-0.051 0-0.078 0-8.817 0-16.801-3.566-22.589-9.334l0.001 0.001c-5.814-5.795-9.412-13.811-9.412-22.667s3.598-16.872 9.411-22.666l213.334-213.334c5.795-5.814 13.811-9.412 22.667-9.412s16.872 3.598 22.666 9.411l0.001 0.001c5.814 5.795 9.412 13.811 9.412 22.667s-3.598 16.872-9.411 22.666l-213.334 213.334c-5.787 5.767-13.771 9.333-22.588 9.333-0.028 0-0.055 0-0.083 0h0.004zM618.667 586.667c-0.023 0-0.051 0-0.078 0-8.817 0-16.801-3.566-22.589-9.334l-213.332-213.332c-5.814-5.795-9.412-13.811-9.412-22.667s3.598-16.872 9.411-22.666l0.001-0.001c5.795-5.814 13.811-9.412 22.667-9.412s16.872 3.598 22.666 9.411l213.334 213.334c5.814 5.795 9.412 13.811 9.412 22.667s-3.598 16.872-9.411 22.666l-0.001 0.001c-5.787 5.767-13.771 9.333-22.588 9.333-0.028 0-0.055 0-0.083 0h0.004zM512 864c-229.371 0-416-186.629-416-416 0-229.373 186.629-416 416-416 229.373 0 416 186.627 416 416 0 229.371-186.627 416-416 416zM512 800c194.785 0 352-157.217 352-352 0-194.785-157.215-352-352-352-194.783 0-352 157.215-352 352 0 194.783 157.217 352 352 352z" />
<glyph unicode="&#xe90c;" glyph-name="cross" d="M360.917 631.083c-8.826-0.025-16.808-3.62-22.582-9.416l-0.001-0.001c-5.789-5.791-9.37-13.79-9.37-22.625s3.581-16.834 9.37-22.625l302.083-302.083c5.791-5.789 13.79-9.37 22.625-9.37s16.834 3.581 22.625 9.37v0c5.789 5.791 9.37 13.79 9.37 22.625s-3.581 16.834-9.37 22.625l-302.083 302.083c-5.794 5.816-13.81 9.415-22.666 9.417v0zM663 631.083c-8.826-0.025-16.808-3.62-22.582-9.416l-302.084-302.084c-5.789-5.791-9.37-13.79-9.37-22.625s3.581-16.834 9.37-22.625v0c5.791-5.789 13.79-9.37 22.625-9.37s16.834 3.581 22.625 9.37l302.083 302.083c5.789 5.791 9.37 13.79 9.37 22.625s-3.581 16.834-9.37 22.625v0c-5.794 5.816-13.81 9.415-22.666 9.417v0z" />
<glyph unicode="&#xe90d;" glyph-name="mail" d="M206.188 778.688c-28.64 0-56.124-11.374-76.375-31.625s-31.687-47.798-31.687-76.438c0.004-17.625 4.368-34.991 12.625-50.563 8.265-15.592 20.2-28.915 34.812-38.813l255.188-172.937c33.556-22.742 73.157-34.938 113.687-34.938s80.133 12.194 113.687 34.938l254.5 172.5c14.639 9.878 26.654 23.166 34.938 38.75 0 0.009 0 0.021 0 0.032s0 0.023 0 0.034v-0.002c8.279 15.591 12.572 32.969 12.562 50.625v0.375c0 28.642-11.379 56.188-31.625 76.438-20.252 20.25-47.736 31.623-76.375 31.623zM206.188 714.688h615.937c11.688 0 22.859-4.609 31.125-12.875 8.266-8.268 12.875-19.5 12.875-31.188v-0.375c0-0.009 0-0.020 0-0.031s0-0.022 0-0.033v0.002c0.004-7.178-1.756-14.219-5.125-20.563-3.371-6.343-8.244-11.74-14.187-15.75 0-0.009 0-0.021 0-0.032s0-0.023 0-0.034v0.002l-254.563-172.563c-22.957-15.56-50.074-23.875-77.812-23.875s-54.85 8.313-77.813 23.875l-255.187 172.939c-5.948 4.029-10.82 9.459-14.188 15.813-3.367 6.35-5.127 13.436-5.125 20.625 0 11.69 4.671 22.921 12.938 31.188s19.435 12.875 31.125 12.875zM130.125 693.312c-17.673 0-32-14.327-32-32v0-426.625c0-31.107 12.379-61.004 34.375-83s51.895-34.312 83-34.312h597.313c31.106 0 60.942 12.317 82.937 34.312s34.375 51.891 34.375 83v426.625c0 17.673-14.327 32-32 32v0c-17.673 0-32-14.327-32-32v0-426.625c0-14.158-5.614-27.739-15.625-37.75s-23.526-15.562-37.687-15.562h-597.313c-14.159 0-27.741 5.553-37.75 15.562s-15.625 23.59-15.625 37.75v426.625c0 17.673-14.327 32-32 32v0zM417.125 468.313c-8.836-0.001-16.835-3.584-22.625-9.375l-262-262c-5.789-5.791-9.37-13.79-9.37-22.625s3.581-16.834 9.37-22.625v0c5.791-5.789 13.79-9.37 22.625-9.37s16.834 3.581 22.625 9.37l262 262c5.789 5.791 9.37 13.79 9.37 22.625s-3.581 16.834-9.37 22.625v0c-5.79 5.791-13.789 9.374-22.625 9.375v0zM588.875 458.625c-5.789-5.791-9.37-13.79-9.37-22.625s3.581-16.834 9.37-22.625l261.5-261.562c5.791-5.789 13.79-9.37 22.625-9.37s16.834 3.581 22.625 9.37v0c5.808 5.794 9.401 13.805 9.401 22.656s-3.593 16.863-9.401 22.656l-261.501 261.501c-5.791 5.789-13.79 9.37-22.625 9.37s-16.834-3.581-22.625-9.37v0z" />
<glyph unicode="&#xe90e;" glyph-name="phone" d="M255 802.188c-31.1 0-60.943-12.325-82.938-34.312l-27.812-27.75c-0.085-0.084-0.166-0.165-0.247-0.247l-0.003-0.003c-19.247-19.628-33.381-43.704-41.188-70.063s-9.016-54.245-3.562-81.188c0.081-0.402 0.124-0.591 0.169-0.78l-0.044 0.218c30.071-134.91 99.341-257.925 199-353.687 95.762-99.663 218.777-168.932 353.687-199-0.029-0.001 0.161-0.045 0.351-0.086l0.212-0.039c26.944-5.457 54.828-4.245 81.188 3.562 26.358 7.807 50.434 21.943 70.062 41.187 0.007 0.006 0.069 0.087 0.13 0.169l0.059 0.081 27.811 27.75c10.899 10.895 19.538 23.884 25.438 38.125 5.9 14.239 8.938 29.463 8.937 44.875s-3.037 30.699-8.937 44.938c-5.899 14.234-14.535 27.164-25.438 38.062l-50.062 50.062c-17.993 17.983-42.429 28.062-67.875 28.062s-49.882-10.074-67.875-28.062l-38.625-38.625c-56.799 25.542-108.543 61.176-152.375 105.438-0.063 0.064-0.125 0.125-0.187 0.187l-0.002 0.002c-44.237 43.827-79.939 95.534-105.5 152.313l33.687 33.75c9.796 8.705 17.71 19.328 23.313 31.188 5.604 11.857 8.745 24.714 9.25 37.812 0.506 13.105-1.64 26.129-6.312 38.375s-11.77 23.437-20.874 32.874c-0.16 0.191-0.283 0.333-0.407 0.474l0.032-0.037-50.062 50.062c-21.995 21.988-51.9 34.312-83 34.312zM255 738.188c14.155 0 27.739-5.555 37.75-15.562l49.625-49.688c3.114-3.228 5.526-7.058 7.125-11.25 1.6-4.194 2.36-8.647 2.188-13.125-0.173-4.483-1.271-8.884-3.188-12.938-1.911-4.044-4.644-7.643-8-10.625-0.488-0.44-0.936-0.869-1.372-1.309l-0.003-0.003-34.937-35c-9.105-8.904-15.319-20.326-17.812-32.812-2.493-12.484-1.169-25.473 3.812-37.188 0.163-0.391 0.247-0.576 0.332-0.76l-0.082 0.197c28.781-64.301 69.166-122.709 119.187-172.312 0.032-0.032 0.093-0.030 0.125-0.064 0.032-0.032 0.030-0.093 0.064-0.125 49.786-50.227 108.464-90.717 173.062-119.5 0.028-0.023 0.233-0.127 0.439-0.23l0.186-0.084c11.519-4.849 24.238-6.098 36.5-3.625 12.255 2.472 23.446 8.568 32.187 17.5l39.125 39.063c6.007 6.005 14.132 9.375 22.625 9.375s16.611-3.364 22.625-9.375l50.062-50c4.95-4.948 8.879-10.836 11.562-17.313 2.682-6.472 4.062-13.43 4.062-20.438s-1.38-13.903-4.062-20.375c0-0.009 0-0.021 0-0.032s0-0.023 0-0.034v0.002c-2.683-6.476-6.609-12.299-11.562-17.25l-27.562-27.562c-12.167-11.93-27.101-20.724-43.438-25.563-16.274-4.82-33.423-5.526-50.062-2.188-122.67 27.421-234.49 90.398-321.5 181.125-0.31 0.322-0.615 0.628-0.927 0.927l-0.011 0.010c-90.725 87.014-153.703 198.834-181.126 321.504-3.337 16.641-2.632 33.789 2.188 50.063 4.838 16.336 13.634 31.273 25.562 43.438l27.562 27.5c0 0.009 0 0.020 0 0.031s0 0.022 0 0.033v-0.002c10.010 10.007 23.533 15.563 37.688 15.563zM554.125 693.688c-17.431-0.314-31.441-14.518-31.441-31.995 0-0.178 0.001-0.355 0.004-0.532v0.027c0.279-17.458 14.497-31.504 31.996-31.504 0.177 0 0.354 0.001 0.53 0.004h-0.027c18.276 0.301 36.435-3.082 53.375-9.938s32.329-17.014 45.25-29.937c5.794-5.809 13.806-9.402 22.657-9.402 8.819 0 16.806 3.568 22.594 9.339l-0.001-0.001c5.808 5.794 9.401 13.805 9.401 22.656s-3.593 16.863-9.401 22.656l-0.001 0.001c-18.99 18.995-41.605 33.926-66.5 44.001-24.897 10.076-51.581 15.066-78.438 14.625zM554.625 865.562c-17.646-0.036-31.938-14.349-31.938-32 0-0.022 0-0.044 0-0.066v0.003c0.036-17.646 14.349-31.938 32-31.938 0 0 0 0 0 0v0c40.818 0.048 81.292-8.002 119-23.625s71.925-38.538 100.75-67.438c5.794-5.808 13.805-9.401 22.656-9.401 8.82 0 16.806 3.568 22.595 9.34l-0.001-0.001c5.809 5.794 9.402 13.806 9.402 22.657 0 8.819-3.568 16.806-9.339 22.594l0.001-0.001c-34.78 34.869-76.067 62.525-121.564 81.375s-94.314 28.557-143.562 28.5zM676.438 644.438c-8.836-0.001-16.835-3.584-22.625-9.375v0c-5.789-5.791-9.37-13.79-9.37-22.625s3.581-16.834 9.37-22.625v0c12.924-12.921 23.146-28.312 30-45.25 6.857-16.94 10.238-35.1 9.937-53.375-0.003-0.15-0.004-0.327-0.004-0.505 0-17.477 14.010-31.681 31.412-31.995h0.029c0.169-0.003 0.368-0.005 0.567-0.005 17.477 0 31.682 14.011 31.995 31.413v0.029c0.442 26.858-4.547 53.541-14.625 78.438-10.074 24.898-25.070 47.511-44.062 66.5-5.79 5.791-13.789 9.374-22.625 9.375v0zM797.062 765.125c-8.822-0.037-16.795-3.638-22.561-9.436l-0.001-0.001c-5.789-5.791-9.37-13.79-9.37-22.625s3.581-16.834 9.37-22.625v0c28.898-28.826 51.879-63.042 67.5-100.75 15.622-37.71 23.612-78.183 23.562-119 0 0 0 0 0 0 0-17.651 14.291-31.964 31.934-32h0.003c0.019 0 0.041 0 0.063 0 17.651 0 31.964 14.291 32 31.934v0.003c0.061 49.251-9.589 98.003-28.438 143.5-18.849 45.5-46.51 86.848-81.375 121.625-5.791 5.792-13.792 9.375-22.63 9.375-0.020 0-0.040 0-0.061 0h0.003z" />
<glyph unicode="&#xe90f;" glyph-name="pin" d="M512 693.312c-42.423 0-83.129-16.816-113.125-46.812-29.999-29.999-46.875-70.765-46.875-113.187 0-42.42 16.876-83.126 46.875-113.125 29.995-29.995 70.7-46.875 113.125-46.875s83.13 16.88 113.125 46.875c29.999 29.999 46.875 70.705 46.875 113.125 0 42.423-16.876 83.189-46.875 113.187-29.996 29.997-70.702 46.812-113.125 46.812zM512 629.313c25.474 0 49.865-10.052 67.875-28.063 18.014-18.014 28.125-42.463 28.125-67.937 0-25.471-10.111-49.861-28.125-67.875-18.011-18.011-42.402-28.125-67.875-28.125s-49.864 10.114-67.875 28.125c-18.014 18.014-28.125 42.404-28.125 67.875 0 25.475 10.111 49.923 28.125 67.937 18.010 18.011 42.401 28.063 67.875 28.063zM512 864c-87.684 0-171.809-34.872-233.812-96.875s-96.875-146.128-96.875-233.812c0-126.222 80.036-247.329 156.812-339.188s153.562-154.875 153.562-154.875c5.479-4.527 12.575-7.273 20.313-7.273s14.833 2.746 20.367 7.316l-0.054-0.043c0 0 76.785 63.017 153.562 154.875s156.812 212.965 156.812 339.188c0 87.685-34.873 171.809-96.875 233.812-62.005 62.003-146.125 96.875-233.813 96.875zM512 800c70.738 0 138.542-28.106 188.562-78.125 50.017-50.019 78.125-117.828 78.125-188.562 0-97.778-69.318-211.316-141.875-298.125-62.401-74.658-108.57-112.123-124.813-125.937-16.245 13.817-62.352 51.282-124.75 125.937-72.556 86.809-141.938 200.347-141.938 298.125 0 70.735 28.107 138.544 78.125 188.562s117.828 78.125 188.562 78.125z" />
<glyph unicode="&#xe910;" glyph-name="document" d="M463.75 842.667c-38.12 0-74.709-15.126-101.667-42.083-26.957-26.956-42.083-63.544-42.083-101.667v-373.333c-0.061-18.9 3.566-37.601 10.75-55.083 7.193-17.507 17.81-33.423 31.167-46.833 13.357-13.405 29.269-24.073 46.75-31.333s36.155-11 55.083-11h224c38.235 0 74.963 15.214 102 42.25s42.25 63.765 42.25 102v245.75c0 9.176-1.861 18.201-5.417 26.667h0.085c-3.52 8.395-8.711 16.023-15.169 22.417l-0.166 0.167-202.084 202.083c-6.412 6.375-14.055 11.407-22.417 14.833-8.319 3.412-17.186 5.185-26.167 5.167zM463.75 778.667h97c0.614 0.003 1.277-0.105 1.833-0.333 0.551-0.226 0.995-0.594 1.417-1l202.5-202.417c0.487-0.479 0.825-1.051 1.083-1.667 0.259-0.617 0.417-1.243 0.417-1.917v-245.75c0-21.285-8.45-41.7-23.5-56.75s-35.465-23.5-56.75-23.5h-224c-10.504 0-20.883 2.054-30.583 6.083s-18.501 9.975-25.917 17.417c-7.416 7.445-13.259 16.286-17.25 26s-6.040 20.080-6 30.583v373.502c0 21.171 8.362 41.444 23.333 56.415s35.247 23.333 56.417 23.333zM592.833 831.25c-8.006 2.013-16.508 1.476-24.167-1.583-7.652-3.068-14.225-8.453-18.667-15.5-4.394-6.971-6.449-15.223-5.917-23.5l-0.083 2.083v-170.333c-0.102-9.134 1.576-18.189 5-26.667 0.013 0 0.028 0 0.043 0s0.030 0 0.045 0h-0.002c3.422-8.453 8.471-16.153 14.917-22.667 6.424-6.5 14.060-11.725 22.5-15.25 8.429-3.516 17.441-5.333 26.583-5.333h170.667c0.92 0.026 1.787 0.086 2.643 0.18l-0.143-0.013c7.395 0.565 14.421 3.178 20.417 7.583 5.969 4.385 10.663 10.287 13.417 17.167 2.752 6.879 3.467 14.451 2.167 21.75-1.304 7.322-4.634 14.089-9.583 19.583-0.373 0.422-0.727 0.802-1.089 1.173l0.006-0.006-198.252 198.5c-5.312 6.346-12.485 10.812-20.5 12.833zM608 733.333l116.583-116.833h-111.5c-0.68 0-1.275 0.149-1.917 0.417-0.623 0.26-1.187 0.682-1.667 1.167-0.466 0.471-0.902 1.014-1.167 1.667h0.085c-0.252 0.628-0.422 1.314-0.418 2 0 0.049 0 0.108 0 0.167s0 0.117 0 0.176v-0.009zM482.583 357.583c-17.673 0-32-14.327-32-32v0c0-17.673 14.327-32 32-32v0h186.833c17.673 0 32 14.327 32 32v0c0 17.673-14.327 32-32 32v0zM482.583 469.333c-17.673 0-32-14.327-32-32v0c0-17.673 14.327-32 32-32v0h112.167c17.673 0 32 14.327 32 32v0c0 17.673-14.327 32-32 32v0zM335.667 714.667c-38.046-0.144-74.514-15.347-101.417-42.25s-42.106-63.371-42.25-101.417v-373.417c-0.001-38.141 15.168-74.811 42.083-101.833 26.917-27.018 63.44-42.274 101.583-42.417h224.083c38.235 0 74.963 15.214 102 42.25s42.25 63.765 42.25 102v16.167c0 17.673-14.327 32-32 32v0c-17.673 0-32-14.327-32-32v0-16.167c0-21.285-8.45-41.7-23.5-56.75s-35.465-23.5-56.75-23.5h-223.833c-21.231 0.079-41.514 8.541-56.5 23.583-14.988 15.047-23.417 35.433-23.417 56.667v373.167c0.080 21.18 8.523 41.439 23.5 56.417s35.236 23.42 56.417 23.5h16.083c17.673 0 32 14.327 32 32v0c0 17.673-14.327 32-32 32v0h-16.25z" />
<glyph unicode="&#xe911;" glyph-name="link" d="M512 698.333c-42.388 0-83.092-16.796-113.083-46.75l-241.417-241.083c-14.914-14.862-26.758-32.548-34.833-52-8.075-19.448-12.25-40.274-12.25-61.333 0-21.056 4.173-41.885 12.25-61.333 8.076-19.452 19.923-37.136 34.833-52 23.445-23.375 53.604-38.963 86.25-44.5 32.67-5.541 66.224-0.783 96.083 13.583 10.837 5.28 18.173 16.212 18.173 28.858 0 5.052-1.171 9.831-3.256 14.080l0.084-0.188c-5.293 10.8-16.206 18.105-28.826 18.105-5.065 0-9.855-1.177-14.112-3.272l0.188 0.084c-17.921-8.623-38.059-11.492-57.667-8.167-19.606 3.325-37.673 12.702-51.75 26.75-8.955 8.927-16.072 19.498-20.917 31.167-4.844 11.664-7.333 24.2-7.333 36.833 0 12.639 2.487 25.16 7.333 36.833 4.845 11.669 11.965 22.246 20.917 31.167l241.5 241.083c18.008 17.986 42.381 28.083 67.833 28.083s49.825-10.097 67.833-28.083c17.987-18.009 28.083-42.382 28.083-67.833 0-25.454-10.093-49.817-28.083-67.833l-90.5-90.417c-5.789-5.791-9.37-13.79-9.37-22.625s3.581-16.834 9.37-22.625v0c5.795-5.814 13.811-9.412 22.667-9.412s16.872 3.598 22.666 9.411l90.418 90.418c0 0.013 0 0.028 0 0.043s0 0.030 0 0.045v-0.002c29.95 29.992 46.833 70.61 46.833 113s-16.88 83.093-46.833 113.083c0 0.012 0 0.027 0 0.042s0 0.029 0 0.044v-0.002c-29.991 29.952-70.696 46.748-113.083 46.748zM780.25 756.667c-32.671 5.54-66.223 0.782-96.083-13.583-10.837-5.28-18.173-16.212-18.173-28.858 0-5.052 1.171-9.831 3.256-14.080l-0.084 0.188c5.293-10.8 16.206-18.105 28.826-18.105 5.065 0 9.855 1.177 14.112 3.272l-0.188-0.084c17.926 8.624 38.054 11.492 57.667 8.167 19.606-3.325 37.673-12.7 51.75-26.75 8.95-8.919 16.067-19.492 20.917-31.167 4.844-11.668 7.333-24.195 7.333-36.833s-2.489-25.166-7.333-36.833c-4.85-11.674-11.966-22.248-20.917-31.167l-241.5-241.083c-18.009-17.987-42.382-28.083-67.833-28.083s-49.827 10.098-67.833 28.083c-17.951 18.003-28.083 42.408-28.083 67.833s10.132 49.747 28.083 67.75v0.085l90.5 90.417c5.789 5.791 9.37 13.79 9.37 22.625s-3.581 16.834-9.37 22.625v0c-5.795 5.814-13.811 9.412-22.667 9.412s-16.872-3.598-22.666-9.411l-90.418-90.42c0-0.013 0-0.028 0-0.043s0-0.030 0-0.045v0.002c-29.955-29.992-46.833-70.612-46.833-113s16.879-83.092 46.833-113.083c0-0.013 0-0.028 0-0.043s0-0.030 0-0.045v0.002c29.989-29.951 70.694-46.746 113.083-46.746s83.093 16.796 113.083 46.75l241.417 241.083c14.918 14.864 26.755 32.556 34.833 52 8.075 19.449 12.25 40.278 12.25 61.333s-4.175 41.884-12.25 61.333c-8.078 19.443-19.916 37.135-34.833 52-23.445 23.378-53.606 38.963-86.25 44.5z" />
<glyph unicode="&#xe912;" glyph-name="bars-alt" horiz-adv-x="983" d="M778.24 622.080c16.966 0 30.72-13.754 30.72-30.72s-13.754-30.72-30.72-30.72v61.44zM204.8 560.64c-16.966 0-30.72 13.754-30.72 30.72s13.754 30.72 30.72 30.72v-61.44zM778.24 458.24c16.966 0 30.72-13.754 30.72-30.72s-13.754-30.72-30.72-30.72v61.44zM286.72 396.8c-16.966 0-30.72 13.754-30.72 30.72s13.754 30.72 30.72 30.72v-61.44zM778.24 294.4c16.966 0 30.72-13.754 30.72-30.72s-13.754-30.72-30.72-30.72v61.44zM491.52 232.96c-16.966 0-30.72 13.754-30.72 30.72s13.754 30.72 30.72 30.72v-61.44zM778.24 560.64h-573.44v61.44h573.44v-61.44zM778.24 396.8h-491.52v61.44h491.52v-61.44zM778.24 232.96h-286.72v61.44h286.72v-61.44z" />
<glyph unicode="&#xe913;" glyph-name="arrow-receive" d="M692.917 660.917c-8.857-0.001-16.873-3.601-22.666-9.416l-361.751-361.751c-5.789-5.791-9.37-13.79-9.37-22.625s3.581-16.834 9.37-22.625v0c5.791-5.789 13.79-9.37 22.625-9.37s16.834 3.581 22.625 9.37l361.75 361.75c5.789 5.791 9.37 13.79 9.37 22.625s-3.581 16.834-9.37 22.625v0c-5.775 5.797-13.757 9.392-22.579 9.417h-0.005zM475.75 660.917c-17.673 0-32-14.327-32-32v0c0-17.673 14.327-32 32-32v0h185.167v-185.167c0-17.673 14.327-32 32-32v0c17.673 0 32 14.327 32 32v0 217.167c-0.002 17.672-14.328 31.998-32 32v0z" />
<glyph unicode="&#xe914;" glyph-name="arrow-send" d="M692.917 660.917c-8.857-0.001-16.873-3.601-22.666-9.416l-361.751-361.751c-5.789-5.791-9.37-13.79-9.37-22.625s3.581-16.834 9.37-22.625v0c5.791-5.789 13.79-9.37 22.625-9.37s16.834 3.581 22.625 9.37l361.75 361.75c5.789 5.791 9.37 13.79 9.37 22.625s-3.581 16.834-9.37 22.625v0c-5.775 5.797-13.757 9.392-22.579 9.417h-0.005zM331.083 516.25c-17.673 0-32-14.327-32-32v0-217.167c0.002-17.672 14.328-31.998 32-32h217.167c17.673 0 32 14.327 32 32v0c0 17.673-14.327 32-32 32v0h-185.167v185.167c0 17.673-14.327 32-32 32v0z" />
<glyph unicode="&#xe915;" glyph-name="timer" d="M512-10.667c-223.573 0-405.333 181.76-405.333 405.333s181.76 405.333 405.333 405.333c223.573 0 405.333-181.76 405.333-405.333s-181.76-405.333-405.333-405.333zM512 736c-188.16 0-341.333-153.173-341.333-341.333s153.173-341.333 341.333-341.333c188.16 0 341.333 153.173 341.333 341.333s-153.173 341.333-341.333 341.333zM512 373.333c-17.493 0-32 14.507-32 32v213.333c0 17.493 14.507 32 32 32s32-14.507 32-32v-213.333c0-17.493-14.507-32-32-32zM640 842.667h-256c-17.493 0-32 14.507-32 32s14.507 32 32 32h256c17.493 0 32-14.507 32-32s-14.507-32-32-32z" />
<glyph unicode="&#xe916;" glyph-name="check-filled-square" d="M725.333 832h-426.667c-45.264 0-88.673-17.981-120.68-49.987s-49.987-75.416-49.987-120.68v-426.667c0-45.265 17.981-88.674 49.987-120.678 32.006-32.009 75.416-49.988 120.68-49.988h426.667c45.265 0 88.674 17.98 120.678 49.988 32.009 32.004 49.988 75.413 49.988 120.678v426.667c0 45.264-17.98 88.673-49.988 120.68-32.004 32.006-75.413 49.987-120.678 49.987zM682.667 527.787l-205.227-204.8c-2.94-3.012-6.46-5.397-10.347-7.010s-8.060-2.419-12.267-2.377c-4.203-0.021-8.371 0.802-12.254 2.411-3.883 1.613-7.407 3.985-10.359 6.976l-90.88 93.44c-3.899 6.016-5.667 13.163-5.018 20.301s3.674 13.854 8.592 19.068c4.919 5.214 11.445 8.623 18.534 9.685s14.328-0.286 20.559-3.827l70.827-70.827 185.173 182.187c2.94 3.019 6.46 5.418 10.342 7.057s8.055 2.482 12.271 2.482c4.215 0 8.388-0.844 12.271-2.482s7.403-4.038 10.342-7.057c2.807-3.136 4.966-6.794 6.353-10.766 1.391-3.971 1.984-8.178 1.745-12.378-0.235-4.201-1.301-8.314-3.127-12.103-1.83-3.789-4.39-7.181-7.531-9.98z" />
<glyph unicode="&#xe917;" glyph-name="calendar" d="M832 789.333h-128v64c0 5.658-2.249 11.084-6.246 15.085-4.002 4.001-9.429 6.249-15.087 6.249s-11.085-2.248-15.087-6.249c-3.998-4-6.246-9.427-6.246-15.085v-64h-298.667v64c0 5.658-2.248 11.084-6.249 15.085s-9.427 6.249-15.085 6.249c-5.658 0-11.084-2.248-15.085-6.249s-6.249-9.427-6.249-15.085v-64h-128c-28.279-0.034-55.391-11.283-75.387-31.279s-31.246-47.108-31.279-75.387v-554.667c0.034-28.279 11.283-55.39 31.279-75.388s47.108-31.245 75.387-31.279h640c28.288 0 55.42 11.238 75.426 31.241 20.002 20.006 31.241 47.138 31.241 75.426v554.667c0 28.29-11.238 55.421-31.241 75.425-20.006 20.004-47.138 31.242-75.426 31.242zM896 128c0-16.973-6.741-33.254-18.743-45.257s-28.284-18.743-45.257-18.743h-640c-16.974 0-33.253 6.741-45.255 18.743s-18.745 28.284-18.745 45.257v362.667h768v-362.667zM896 533.333h-768v149.333c0 35.328 28.587 64 64 64h128v-64c0-5.658 2.248-11.084 6.249-15.085s9.427-6.249 15.085-6.249c5.658 0 11.084 2.248 15.085 6.249s6.249 9.427 6.249 15.085v64h298.667v-64c0-5.658 2.249-11.084 6.246-15.085 4.002-4.001 9.429-6.249 15.087-6.249s11.085 2.248 15.087 6.249c3.998 4 6.246 9.427 6.246 15.085v64h128c16.973 0 33.254-6.743 45.257-18.745s18.743-28.281 18.743-45.255v-149.333z" />
<glyph unicode="&#xe918;" glyph-name="check-empty-square" d="M298.667 864c-111.551 0-202.667-91.116-202.667-202.667v-426.667c0-111.549 91.116-202.667 202.667-202.667h426.667c111.55 0 202.667 91.117 202.667 202.667v426.667c0 111.551-91.117 202.667-202.667 202.667zM298.667 800h426.667c76.96 0 138.667-61.705 138.667-138.667v-426.667c0-76.96-61.707-138.667-138.667-138.667h-426.667c-76.962 0-138.667 61.706-138.667 138.667v426.667c0 76.962 61.704 138.667 138.667 138.667z" />
<glyph unicode="&#xe919;" glyph-name="login" d="M320 864c-42.422 0-83.17-16.836-113.167-46.833s-46.833-70.744-46.833-113.167v-512c0-42.421 16.835-83.169 46.833-113.167 29.997-29.996 70.744-46.833 113.167-46.833h170.667c42.422 0 83.17 16.836 113.167 46.833s46.833 70.745 46.833 113.167v85.333c0 17.673-14.327 32-32 32v0c-17.673 0-32-14.327-32-32v0-85.333c0-25.47-10.072-49.905-28.083-67.917s-42.447-28.083-67.917-28.083h-170.667c-25.472 0-49.904 10.071-67.917 28.083-18.011 18.011-28.083 42.446-28.083 67.917v512c0 25.473 10.071 49.904 28.083 67.917s42.444 28.083 67.917 28.083h170.667c25.47 0 49.906-10.072 67.917-28.083 18.012-18.013 28.083-42.444 28.083-67.917v-85.333c0-17.673 14.327-32 32-32v0c17.673 0 32 14.327 32 32v0 85.333c0 42.423-16.837 83.17-46.833 113.167s-70.746 46.833-113.167 46.833zM320 491.5c-17.673 0-32-14.327-32-32v0c0-17.673 14.327-32 32-32v0h512c17.673 0 32 14.327 32 32v0c0 17.673-14.327 32-32 32v0zM473.583 645.083c-8.815-0.001-16.797-3.567-22.584-9.334l-153.666-153.582c-5.789-5.791-9.369-13.79-9.369-22.625s3.58-16.834 9.369-22.625v0l153.667-153.583c5.791-5.789 13.79-9.37 22.625-9.37s16.834 3.581 22.625 9.37v0c5.789 5.791 9.37 13.79 9.37 22.625s-3.581 16.834-9.37 22.625l-130.917 130.917 130.917 131c5.789 5.791 9.37 13.79 9.37 22.625s-3.581 16.834-9.37 22.625v0c-5.787 5.767-13.771 9.333-22.588 9.333-0.028 0-0.055 0-0.083 0h0.004z" />
<glyph unicode="&#xe91a;" glyph-name="eye" d="M512 744.083c-99.002 0-193.995-39.329-264-109.333l-103.75-103.833c-22-21.996-34.417-51.811-34.417-82.917s12.423-61.004 34.417-83l103.75-103.75c70.005-70.005 164.998-109.333 264-109.333s193.995 39.328 264 109.333l103.75 103.75c21.996 21.996 34.417 51.895 34.417 83s-12.415 60.921-34.417 82.917l-103.75 103.833c-70.006 70.005-165 109.333-264 109.333zM512 680.083c82.051 0 160.73-32.564 218.75-90.583l103.75-103.833c10.007-10.004 15.667-23.511 15.667-37.667s-5.655-27.738-15.667-37.75l-103.75-103.75c-58.020-58.020-136.699-90.583-218.75-90.583-82.052 0-160.73 32.563-218.75 90.583l-103.75 103.75c-10.012 10.013-15.667 23.595-15.667 37.75s5.66 27.662 15.667 37.667l103.75 103.833c58.020 58.020 136.698 90.583 218.75 90.583zM512 586.667c-76.204 0-138.667-62.462-138.667-138.667s62.462-138.667 138.667-138.667c76.204 0 138.667 62.462 138.667 138.667s-62.462 138.667-138.667 138.667zM512 522.667c41.615 0 74.667-33.051 74.667-74.667s-33.051-74.667-74.667-74.667c-41.615 0-74.667 33.051-74.667 74.667s33.051 74.667 74.667 74.667z" />
<glyph unicode="&#xe91b;" glyph-name="eye-slash" d="M774.833 590.5c-5.789-5.791-9.37-13.79-9.37-22.625s3.581-16.834 9.37-22.625l59.75-59.75c9.893-9.996 15.417-23.437 15.417-37.5 0-14.107-5.561-27.585-15.5-37.583l-103.667-103.583c0-0.013 0-0.028 0-0.043s0-0.030 0-0.045v0.002c-36.992-37.213-82.857-64.387-133.25-79-50.397-14.609-103.678-16.237-154.833-4.583-2.143 0.512-4.604 0.805-7.134 0.805-15.152 0-27.844-10.531-31.157-24.672l-0.043-0.217c-0.5-2.12-0.787-4.554-0.787-7.054 0-15.145 10.521-27.833 24.654-31.153l0.217-0.043c61.741-14.066 126.099-12.213 186.917 5.417 60.775 17.624 116.035 50.381 160.667 95.25l103.752 103.752c21.845 21.976 34.165 51.767 34.165 82.75 0 30.98-12.323 60.771-34.167 82.75 0 0.013 0 0.028 0 0.043s0 0.030 0 0.045v-0.002l-59.75 59.665c-5.791 5.789-13.79 9.37-22.625 9.37s-16.834-3.581-22.625-9.37v0zM478.75 742.667c-87.273-7.849-169.039-46.207-230.917-108.25l-103.667-103.667c-21.846-21.975-34.167-51.764-34.167-82.75 0-30.984 12.325-60.773 34.167-82.75l101.833-103.5c0.194-0.199 0.384-0.389 0.577-0.577l0.007-0.006c14.494-13.987 30.102-26.857 46.667-38.333 5.084-3.556 11.395-5.682 18.204-5.682 10.852 0 20.442 5.401 26.228 13.662l0.068 0.103c3.58 5.095 5.721 11.428 5.721 18.26 0 10.868-5.418 20.471-13.701 26.255l-0.104 0.069c-13.703 9.494-26.581 20.089-38.583 31.667h-0.083l-101.333 103.083c-0.055 0.056-0.11 0.11-0.164 0.164l-0.003 0.003c-9.944 10.006-15.5 23.486-15.5 37.584 0 14.066 5.526 27.508 15.417 37.5l0.083 0.085 103.667 103.667c51.279 51.414 119.009 83.16 191.333 89.665s144.621-12.641 204.25-54.083c5.092-3.573 11.418-5.709 18.243-5.709 10.828 0 20.399 5.378 26.19 13.608l0.068 0.102c3.573 5.092 5.709 11.418 5.709 18.243 0 10.828-5.378 20.399-13.608 26.19l-0.102 0.068c-71.955 50.008-159.226 73.182-246.5 65.333zM509.083 585.667c-34.914-0.99-68.223-15.127-93.167-39.583-24.942-24.453-39.733-57.443-41.417-92.333s9.861-69.176 32.333-95.917c5.909-7 14.689-11.415 24.5-11.415 7.861 0 15.060 2.835 20.631 7.537l-0.048-0.039c7 5.909 11.415 14.689 11.415 24.5 0 7.861-2.835 15.060-7.537 20.631l0.039-0.048c-12.108 14.407-18.324 32.865-17.417 51.667s8.89 36.571 22.333 49.75c13.439 13.176 31.355 20.8 50.167 21.333 18.817 0.534 37.083-6.107 51.25-18.5 5.599-4.924 12.991-7.928 21.084-7.928 9.586 0 18.187 4.215 24.052 10.892l0.031 0.036c4.924 5.599 7.928 12.991 7.928 21.084 0 9.586-4.215 18.187-10.892 24.052l-0.036 0.031c-26.289 22.998-60.333 35.241-95.25 34.25zM868.667 851.667l-766.25-766.333c-5.789-5.791-9.37-13.79-9.37-22.625s3.581-16.834 9.37-22.625v0c5.791-5.789 13.79-9.37 22.625-9.37s16.834 3.581 22.625 9.37l766.25 766.333c5.789 5.791 9.37 13.79 9.37 22.625s-3.581 16.834-9.37 22.625v0c-5.791 5.789-13.79 9.37-22.625 9.37s-16.834-3.581-22.625-9.37v0z" />
<glyph unicode="&#xe91c;" glyph-name="trash" d="M253.833 695.833c-16.711-1.174-29.823-15.019-29.823-31.926 0-0.759 0.026-1.512 0.078-2.258l-0.006 0.101 32-474.5-0.083 2.167c0-31.108 12.338-60.921 34.333-82.917 21.996-21.991 51.894-34.417 83-34.417h277.333c31.105 0 61.004 12.426 83 34.417 21.996 21.996 34.333 51.809 34.333 82.917l-0.085-2.167 32 474.5c0.046 0.645 0.073 1.398 0.073 2.158 0 16.906-13.111 30.751-29.719 31.92l-0.101 0.006c-0.645 0.046-1.398 0.073-2.157 0.073-16.907 0-30.752-13.112-31.92-29.721l-0.006-0.101-32-474.5c-0.050-0.64-0.081-1.396-0.085-2.157v-0.009c0-14.162-5.571-27.655-15.583-37.667-10.012-10.010-23.594-15.667-37.75-15.667h-277.333c-14.158 0-27.74 5.658-37.75 15.667-10.010 10.012-15.581 23.505-15.581 37.667-0.004 0.769-0.034 1.525-0.090 2.273l0.006-0.106-32 474.5c-1.174 16.711-15.019 29.823-31.926 29.823-0.759 0-1.512-0.026-2.258-0.078l0.101 0.006zM576 456.083c-17.673 0-32-14.327-32-32v0-192c0-17.673 14.327-32 32-32v0c17.673 0 32 14.327 32 32v0 192c0 17.673-14.327 32-32 32v0zM448 456.083c-17.673 0-32-14.327-32-32v0-192c0-17.673 14.327-32 32-32v0c17.673 0 32 14.327 32 32v0 192c0 17.673-14.327 32-32 32v0zM213.333 695.917c-17.673 0-32-14.327-32-32v0c0-17.673 14.327-32 32-32v0h597.333c17.673 0 32 14.327 32 32v0c0 17.673-14.327 32-32 32v0zM448 823.917c-19.791 0-38.839-7.923-52.833-21.917s-21.833-32.959-21.833-52.75v-85.333c0-17.673 14.327-32 32-32v0c17.673 0 32 14.327 32 32v0 85.333c0 2.841 1.074 5.49 3.084 7.5s4.744 3.167 7.583 3.167h128c2.84 0 5.496-1.162 7.5-3.167 2.011-2.012 3.167-4.662 3.167-7.5v-85.333c0-17.673 14.327-32 32-32v0c17.673 0 32 14.327 32 32v0 85.333c0 19.794-7.845 38.758-21.834 52.75-13.996 13.998-33.043 21.917-52.833 21.917z" />
<glyph unicode="&#xe91d;" glyph-name="category" d="M251.75 800c-52.64 0-96-43.36-96-96v-128c0-52.641 43.36-96 96-96h128c52.64 0 96 43.36 96 96v128c0 52.64-43.36 96-96 96zM251.75 736h128c18.052 0 32-13.948 32-32v-128c0-18.052-13.948-32-32-32h-128c-18.052 0-32 13.948-32 32v128c0 18.052 13.948 32 32 32zM315.75 416c-87.986 0-160-72.012-160-160s72.014-160 160-160c87.986 0 160 72.012 160 160s-72.014 160-160 160zM315.75 352c53.399 0 96-42.599 96-96s-42.601-96-96-96c-53.399 0-96 42.599-96 96s42.601 96 96 96zM635.75 416c-52.64 0-96-43.36-96-96v-128c0-52.64 43.36-96 96-96h128c52.64 0 96 43.36 96 96v128c0 52.64-43.36 96-96 96zM635.75 352h128c18.050 0 32-13.95 32-32v-128c0-18.050-13.95-32-32-32h-128c-18.050 0-32 13.95-32 32v128c0 18.050 13.95 32 32 32zM704 794c0 0 0 0 0 0-11.749 0-22.019-6.331-27.585-15.767l-0.081-0.149-132.333-228.75c-2.694-4.589-4.285-10.107-4.285-15.997 0-17.675 14.328-32.003 32.003-32.003 0.011 0 0.022 0 0.033 0h264.498c0.009 0 0.021 0 0.032 0 17.675 0 32.003 14.328 32.003 32.003 0 5.89-1.591 11.408-4.367 16.148l0.082-0.151-132.333 228.75c-5.648 9.586-15.918 15.917-27.666 15.917 0 0 0 0 0 0v0zM704 698.167l76.833-132.833h-153.667z" />
<glyph unicode="&#xe91e;" glyph-name="bars" d="M128 192h768v85.333h-768v-85.333zM128 405.333h768v85.333h-768v-85.333zM128 704v-85.333h768v85.333h-768z" />
<glyph unicode="&#xea92;" glyph-name="instagram" d="M512 867.8c136.8 0 153-0.6 206.8-3 50-2.2 77-10.6 95-17.6 23.8-9.2 41-20.4 58.8-38.2 18-18 29-35 38.4-58.8 7-18 15.4-45.2 17.6-95 2.4-54 3-70.2 3-206.8s-0.6-153-3-206.8c-2.2-50-10.6-77-17.6-95-9.2-23.8-20.4-41-38.2-58.8-18-18-35-29-58.8-38.4-18-7-45.2-15.4-95-17.6-54-2.4-70.2-3-206.8-3s-153 0.6-206.8 3c-50 2.2-77 10.6-95 17.6-23.8 9.2-41 20.4-58.8 38.2-18 18-29 35-38.4 58.8-7 18-15.4 45.2-17.6 95-2.4 54-3 70.2-3 206.8s0.6 153 3 206.8c2.2 50 10.6 77 17.6 95 9.2 23.8 20.4 41 38.2 58.8 18 18 35 29 58.8 38.4 18 7 45.2 15.4 95 17.6 53.8 2.4 70 3 206.8 3zM512 960c-139 0-156.4-0.6-211-3-54.4-2.4-91.8-11.2-124.2-23.8-33.8-13.2-62.4-30.6-90.8-59.2-28.6-28.4-46-57-59.2-90.6-12.6-32.6-21.4-69.8-23.8-124.2-2.4-54.8-3-72.2-3-211.2s0.6-156.4 3-211c2.4-54.4 11.2-91.8 23.8-124.2 13.2-33.8 30.6-62.4 59.2-90.8 28.4-28.4 57-46 90.6-59 32.6-12.6 69.8-21.4 124.2-23.8 54.6-2.4 72-3 211-3s156.4 0.6 211 3c54.4 2.4 91.8 11.2 124.2 23.8 33.6 13 62.2 30.6 90.6 59s46 57 59 90.6c12.6 32.6 21.4 69.8 23.8 124.2 2.4 54.6 3 72 3 211s-0.6 156.4-3 211c-2.4 54.4-11.2 91.8-23.8 124.2-12.6 34-30 62.6-58.6 91-28.4 28.4-57 46-90.6 59-32.6 12.6-69.8 21.4-124.2 23.8-54.8 2.6-72.2 3.2-211.2 3.2v0zM512 711c-145.2 0-263-117.8-263-263s117.8-263 263-263 263 117.8 263 263c0 145.2-117.8 263-263 263zM512 277.4c-94.2 0-170.6 76.4-170.6 170.6s76.4 170.6 170.6 170.6c94.2 0 170.6-76.4 170.6-170.6s-76.4-170.6-170.6-170.6zM846.8 721.4c0-33.91-27.49-61.4-61.4-61.4s-61.4 27.49-61.4 61.4c0 33.91 27.49 61.4 61.4 61.4s61.4-27.49 61.4-61.4z" />
<glyph unicode="&#xea93;" glyph-name="whatsapp" d="M873 811.2c-95.8 96-223.2 148.8-359 148.8-279.6 0-507.2-227.6-507.2-507.4 0-89.4 23.4-176.8 67.8-253.6l-72-263 269 70.6c74.2-40.4 157.6-61.8 242.4-61.8h0.2c0 0 0 0 0 0 279.6 0 507.4 227.6 507.4 507.4 0 135.6-52.8 263-148.6 359zM514.2 30.4v0c-75.8 0-150 20.4-214.8 58.8l-15.4 9.2-159.6-41.8 42.6 155.6-10 16c-42.4 67-64.6 144.6-64.6 224.4 0 232.6 189.2 421.8 422 421.8 112.6 0 218.6-44 298.2-123.6 79.6-79.8 123.4-185.6 123.4-298.4-0.2-232.8-189.4-422-421.8-422zM745.4 346.4c-12.6 6.4-75 37-86.6 41.2s-20 6.4-28.6-6.4c-8.4-12.6-32.8-41.2-40.2-49.8-7.4-8.4-14.8-9.6-27.4-3.2s-53.6 19.8-102 63c-37.6 33.6-63.2 75.2-70.6 87.8s-0.8 19.6 5.6 25.8c5.8 5.6 12.6 14.8 19 22.2s8.4 12.6 12.6 21.2c4.2 8.4 2.2 15.8-1 22.2s-28.6 68.8-39 94.2c-10.2 24.8-20.8 21.4-28.6 21.8-7.4 0.4-15.8 0.4-24.2 0.4s-22.2-3.2-33.8-15.8c-11.6-12.6-44.4-43.4-44.4-105.8s45.4-122.6 51.8-131.2c6.4-8.4 89.4-136.6 216.6-191.4 30.2-13 53.8-20.8 72.2-26.8 30.4-9.6 58-8.2 79.8-5 24.4 3.6 75 30.6 85.6 60.2s10.6 55 7.4 60.2c-3 5.6-11.4 8.8-24.2 15.2z" />
<glyph unicode="&#xea95;" glyph-name="telegram" d="M512 960c-282.8 0-512-229.2-512-512s229.2-512 512-512 512 229.2 512 512-229.2 512-512 512zM763.6 609l-84-395.8c-5.8-28.2-22.8-34.8-46.4-21.8l-128 94.6-61.4-59.8c-7.2-7-12.8-12.8-25.6-12.8-16.6 0-13.8 6.2-19.4 22l-43.6 143.2-126.6 39.4c-27.4 8.4-27.6 27.2 6.2 40.6l493.2 190.4c22.4 10.2 44.2-5.4 35.6-40z" />
<glyph unicode="&#xeac9;" glyph-name="linkedin" d="M928 960h-832c-52.8 0-96-43.2-96-96v-832c0-52.8 43.2-96 96-96h832c52.8 0 96 43.2 96 96v832c0 52.8-43.2 96-96 96zM384 128h-128v448h128v-448zM320 640c-35.4 0-64 28.6-64 64s28.6 64 64 64c35.4 0 64-28.6 64-64s-28.6-64-64-64zM832 128h-128v256c0 35.4-28.6 64-64 64s-64-28.6-64-64v-256h-128v448h128v-79.4c26.4 36.2 66.8 79.4 112 79.4 79.6 0 144-71.6 144-160v-288z" />
<glyph unicode="&#xeaca;" glyph-name="linkedin-alt" d="M384 576h177.106v-90.782h2.532c24.64 44.194 84.958 90.782 174.842 90.782 186.946 0 221.52-116.376 221.52-267.734v-308.266h-184.61v273.278c0 65.184-1.334 149.026-96.028 149.026-96.148 0-110.82-70.986-110.82-144.292v-278.012h-184.542v576zM64 576h192v-576h-192v576zM256 736c0-53.019-42.981-96-96-96s-96 42.981-96 96c0 53.019 42.981 96 96 96s96-42.981 96-96z" />
</font>
</defs>
</svg>
